/* XPM */
static char * ii_xpm[] = {
"17 17 3 1",
" 	c None",
".	c #373737",
"+	c #838383",
".................",
".................",
".................",
".................",
".................",
".................",
".................",
".................",
".................",
".................",
".................",
"....+++++++++....",
"....+++++++++....",
".................",
".................",
".................",
"................."};
